<?xml version="1.0" standalone="no"?>
<!DOCTYPE svg PUBLIC "-//W3C//DTD SVG 1.1//EN" "http://www.w3.org/Graphics/SVG/1.1/DTD/svg11.dtd" >
<!--
2013-9-30: Created.
-->
<svg>
<metadata>
Created by iconfont
</metadata>
<defs>

<font id="iconfont" horiz-adv-x="1024" >
  <font-face
    font-family="iconfont"
    font-weight="500"
    font-stretch="normal"
    units-per-em="1024"
    ascent="896"
    descent="-128"
  />
    <missing-glyph />
    
    <glyph glyph-name="lingxing2" unicode="&#58913;" d="M512 132.985263L261.012211 384 512 635.014737 763.014737 384 512 132.985263zM331.829895 384L512 203.856842 692.143158 384 512 564.143158 331.829895 384z"  horiz-adv-x="1024" />

    
    <glyph glyph-name="save3" unicode="&#58973;" d="M700.864 656v-168.144a25.6 25.6 0 0 0-25.6-25.6h-320.96a25.6 25.6 0 0 0-25.6 25.6V656H256v-549.568h517.568V656h-72.704z m-48 0h-276.16v-145.744h276.16V656zM224 704h581.568a16 16 0 0 0 16-16v-613.568a16 16 0 0 0-16-16H224a16 16 0 0 0-16 16V688a16 16 0 0 0 16 16z m346.432-89.04h16a16 16 0 0 0 16-16v-32a16 16 0 0 0-16-16h-16a16 16 0 0 0-16 16v32a16 16 0 0 0 16 16z"  horiz-adv-x="1024" />

    
    <glyph glyph-name="save4" unicode="&#58904;" d="M896 640.8c0 6.4-6.4 6.4-6.4 12.8l-192 192s-6.4 6.4-12.8 6.4H160c-19.2 0-32-12.8-32-32v-704c0-19.2 12.8-32 32-32h704c19.2 0 32 12.8 32 32v524.8z m-512 147.2h256v-128h-256v128z m256-640h-256v192h256v-192z m192 0h-128v224c0 19.2-12.8 32-32 32H352c-19.2 0-32-12.8-32-32v-224H192v640h128v-160c0-19.2 12.8-32 32-32h320c19.2 0 32 12.8 32 32v115.2l128-128v-467.2z"  horiz-adv-x="1024" />

    
    <glyph glyph-name="save24" unicode="&#58905;" d="M682.666667 640v-170.666667a42.666667 42.666667 0 0 0-42.666667-42.666666H384a42.666667 42.666667 0 0 0-42.666667 42.666666V640h-34.133333A51.2 51.2 0 0 1 256 588.8v-409.6A51.2 51.2 0 0 1 307.2 128h409.6a51.2 51.2 0 0 1 51.2 51.2V588.8A51.2 51.2 0 0 1 716.8 640H682.666667z m-106.666667-42.666667a21.333333 21.333333 0 0 0 21.333333-21.333333v-42.666667a21.333333 21.333333 0 1 0-42.666666 0v42.666667a21.333333 21.333333 0 0 0 21.333333 21.333333zM307.2 682.666667h409.6A93.866667 93.866667 0 0 0 810.666667 588.8v-409.6a93.866667 93.866667 0 0 0-93.866667-93.866667H307.2A93.866667 93.866667 0 0 0 213.333333 179.20000000000005V588.8A93.866667 93.866667 0 0 0 307.2 682.666667zM384 640v-170.666667h256V640H384z"  horiz-adv-x="1024" />

    
    <glyph glyph-name="save5" unicode="&#59478;" d="M204.8 773.12h440.6272a122.88 122.88 0 0 0 86.87616-35.98336l132.83328-132.83328A122.88 122.88 0 0 0 901.12 517.4272V240.64c0-135.72096-110.03904-245.76-245.76-245.76H368.64c-135.72096 0-245.76 110.03904-245.76 245.76V691.2a81.92 81.92 0 0 0 81.92 81.92z m286.72-122.88a40.96 40.96 0 0 1-40.96 40.96H245.76a40.96 40.96 0 0 1-40.96-40.96v-81.92a40.96 40.96 0 0 1 40.96-40.96h389.12a40.96 40.96 0 0 1 40.96 40.96v81.92a40.96 40.96 0 0 1-40.96 40.96h-20.48a40.96 40.96 0 0 1-40.96-40.96v-40.96a40.96 40.96 0 1 0-81.92 0v40.96zM276.48 322.56a30.72 30.72 0 0 1 0-61.44h471.04a30.72 30.72 0 0 1 0 61.44h-471.04z m40.96-143.36a30.72 30.72 0 0 1 0-61.44h389.12a30.72 30.72 0 0 1 0 61.44h-389.12z"  horiz-adv-x="1024" />

    
    <glyph glyph-name="save6" unicode="&#58906;" d="M857.8 832.5h-692c-56.3 0-102-45.7-102-102v-692c0-56.3 45.7-102 102-102h692c56.3 0 102 45.7 102 102v692c0 56.3-45.7 102-102 102z m-589-52h488v-267c0-34.2-27.8-62-62-62h-364c-34.2 0-62 27.8-62 62v267z m639-730c0-34.2-27.8-62-62-62h-668c-34.2 0-62 27.8-62 62v668c0 34.2 27.8 62 62 62h39v-279c0-56.3 45.7-102 102-102h388c56.3 0 102 45.7 102 102v279h37c34.2 0 62-27.8 62-62v-668zM649.8 551.5c14.3 0 26 11.7 26 26v116c0 14.3-11.7 26-26 26s-26-11.7-26-26v-116c0-14.3 11.7-26 26-26z"  horiz-adv-x="1024" />

    
    <glyph glyph-name="save7" unicode="&#59014;" d="M704 576c0-17.7-14.3-32-32-32H352c-17.7 0-32 14.3-32 32V712H184v-656h656V554.2l-136 136V576zM512 166c-79.5 0-144 64.5-144 144s64.5 144 144 144 144-64.5 144-144-64.5-144-144-144zM512 454c-79.5 0-144-64.5-144-144s64.5-144 144-144 144 64.5 144 144-64.5 144-144 144z m0-224c-44.2 0-80 35.8-80 80s35.8 80 80 80 80-35.8 80-80-35.8-80-80-80zM893.3 602.7L730.7 765.3c-0.7 0.7-1.4 1.3-2.1 2-0.1 0.1-0.3 0.2-0.4 0.3-0.7 0.7-1.5 1.3-2.2 1.9a64 64 0 0 1-22 11.7V784H144c-17.7 0-32-14.3-32-32v-736c0-17.7 14.3-32 32-32h736c17.7 0 32 14.3 32 32V557.5c0 17-6.7 33.2-18.7 45.2zM384 712h256v-104H384V712z m456-656H184V712h136v-136c0-17.7 14.3-32 32-32h320c17.7 0 32 14.3 32 32V690.2l136-136V56z"  horiz-adv-x="1024" />

    
    <glyph glyph-name="save" unicode="&#59078;" d="M879.398-98.867h-734.799c-57.78 0-104.787 47.007-104.787 104.787v758.345c0 57.78 47.007 104.787 104.787 104.787h734.799c57.78 0 104.787-47.007 104.787-104.787v-758.343c0-57.781-47.007-104.788-104.787-104.788zM144.601 799.194c-19.261 0-34.929-15.669-34.929-34.929v-758.343c0-19.261 15.669-34.929 34.929-34.929h734.799c19.261 0 34.929 15.669 34.929 34.929v758.343c0 19.261-15.669 34.929-34.929 34.929h-734.799zM798.546 442.531h-573.093v366.752h34.929v-331.825h503.234v331.825h34.929zM697.639 529.853h-102.198v174.644h102.198v-174.644zM630.371 564.782h32.34v104.787h-32.34v-104.787z"  horiz-adv-x="1024" />

    
    <glyph glyph-name="save1" unicode="&#58917;" d="M896-128C896-128 128-128 128-128 57.28-128 0-70.72 0 0 0 0 0 768 0 768 0 838.72 57.28 896 128 896 128 896 192 896 192 896 192 896 832 896 832 896 832 896 896 896 896 896 966.72 896 1024 838.72 1024 768 1024 768 1024 0 1024 0 1024-70.72 966.72-128 896-128ZM768 832C768 832 256 832 256 832 256 832 256 448 256 448 256 448 768 448 768 448 768 448 768 832 768 832ZM960 768C960 803.328 931.328 832 896 832 896 832 832 832 832 832 832 832 832 384 832 384 832 384 192 384 192 384 192 384 192 832 192 832 192 832 128 832 128 832 92.672 832 64 803.328 64 768 64 768 64 0 64 0 64-35.328 92.672-64 128-64 128-64 896-64 896-64 931.328-64 960-35.328 960 0 960 0 960 768 960 768ZM640 512C640 512 576 512 576 512 576 512 576 768 576 768 576 768 640 768 640 768 640 768 640 512 640 512Z"  horiz-adv-x="1024" />

    
    <glyph glyph-name="lingxing" unicode="&#58911;" d="M269.473684 384l242.526316 242.526316 242.526316-242.526316-242.526316-242.526316z"  horiz-adv-x="1024" />

    
    <glyph glyph-name="save2" unicode="&#59424;" d="M853.225 827.641H170.774c-58.523 0-106.19-47.668-106.19-106.19v-674.9c0-58.522 47.668-106.19 106.19-106.19h682.451c58.523 0 106.191 47.668 106.191 106.19v674.9c0 58.522-47.197 106.19-106.191 106.19z m-90.145-39.644v-338.866H261.39V787.997h501.69z m158.578-732.478c0-42.477-34.451-77.401-77.4-77.401H179.269c-42.476 0-77.401 34.453-77.401 77.401V712.484c0 42.476 34.453 77.4 77.401 77.4h43.892v-380.869h577.677v380.87h43.891c42.477 0 77.402-34.453 77.402-77.4v-656.967l-0.473 0.001zM676.24 736.553h37.758V547.77H676.24z"  horiz-adv-x="1024" />

    
    <glyph glyph-name="weibiaoti1fuzhi" unicode="&#58881;" d="M512 300m-512 0a34 34 0 1 0 1024 0 34 34 0 1 0-1024 0Z"  horiz-adv-x="1024" />

    
    <glyph glyph-name="yuanxing" unicode="&#58901;" d="M511.996422 299.488319m-511.488326 0a500.315 500.315 0 1 0 1022.976651 0 500.315 500.315 0 1 0-1022.976651 0Z"  horiz-adv-x="1024" />

    
    <glyph glyph-name="yuanxing1" unicode="&#58889;" d="M512 384m-438 0a438 438 0 1 0 876 0 438 438 0 1 0-876 0Z"  horiz-adv-x="1024" />

    
    <glyph glyph-name="list" unicode="&#58897;" d="M789.514501 831.240067 234.519268 831.240067c-70.247924 0-127.72294-57.475016-127.72294-127.72294l0-640.165008c0-70.247924 57.475016-127.72294 127.72294-127.72294l554.995233 0c70.247924 0 127.72294 57.475016 127.72294 127.72294L917.237441 703.517127C917.237441 773.764028 859.761402 831.240067 789.514501 831.240067zM831.402517 703.517127l0-640.165008c0-22.706141-19.181875-41.888016-41.888016-41.888016L234.519268 21.464103c-22.706141 0-41.888016 19.181875-41.888016 41.888016L192.631252 703.517127c0 22.706141 19.181875 41.888016 41.888016 41.888016l554.995233 0C812.220642 745.405143 831.402517 726.222245 831.402517 703.517127zM727.60243 617.872538 299.980165 617.872538c-11.588943 0-21.070898-9.481955-21.070898-21.070898 0-11.588943 9.481955-21.070898 21.070898-21.070898l427.622264 0c11.588943 0 21.070898 9.481955 21.070898 21.070898C748.672304 608.390583 739.191372 617.872538 727.60243 617.872538zM727.60243 404.50501 299.980165 404.50501c-11.588943 0-21.070898-9.481955-21.070898-21.070898 0-11.588943 9.481955-21.070898 21.070898-21.070898l427.622264 0c11.588943 0 21.070898 9.481955 21.070898 21.070898C748.672304 395.023054 739.191372 404.50501 727.60243 404.50501zM727.60243 191.581596 299.980165 191.581596c-11.588943 0-21.070898-9.481955-21.070898-21.070898 0-11.588943 9.481955-21.070898 21.070898-21.070898l427.622264 0c11.588943 0 21.070898 9.481955 21.070898 21.070898C748.672304 182.09964 739.191372 191.581596 727.60243 191.581596z"  horiz-adv-x="1024" />

    
    <glyph glyph-name="yuanxing2" unicode="&#58898;" d="M512 45.568c-186.88 0-338.432 152.064-338.432 338.432S325.12 722.432 512 722.432s338.432-152.064 338.432-338.432-151.552-338.432-338.432-338.432z m0 619.52c-155.136 0-281.088-125.952-281.088-281.088s125.952-281.088 281.088-281.088 281.088 125.952 281.088 281.088-125.952 281.088-281.088 281.088z"  horiz-adv-x="1024" />

    
    <glyph glyph-name="ziyouxian" unicode="&#58955;" d="M949.451632 506.633015c-42.871413 26.034956-80.07064 38.692231-113.724111 38.69223-11.31879 0-22.36538-1.481747-32.836873-4.404309-59.58405-16.638959-89.636506-74.302263-118.701472-130.073475-19.040658-36.534078-38.730093-74.313519-65.066925-96.16213-22.290679-18.492166-41.518602-27.105335-60.511165-27.105334-47.569412 0-101.613282 53.572126-190.909028 159.078065-39.712467 46.920636-84.692914 69.282946-133.685745 66.199724-96.4067-6.066159-166.902264-112.821555-169.855526-117.361964-9.163707-14.087856-5.9055-33.132608 7.414877-43.35646a30.679743 30.679743 0 0 1 2.056845-1.455142 32.284287 32.284287 0 0 1 17.682731-5.265934c10.995425 0 21.150716 5.486968 27.15957 14.671141 0.553609 0.841158 56.111972 84.152609 119.712499 88.068802 27.307949 1.689479 54.252625-12.932544 80.027661-43.383067 28.196179-33.316803 58.236356-68.109214 86.87051-96.844675 30.173207-30.283724 55.666834-50.767244 80.229253-64.464197 25.078165-13.990642 49.012274-20.790512 73.169463-20.790512 4.812609 0 9.69378 0.279363 14.509458 0.830924 29.474288 3.371794 58.103326 16.873296 87.522356 41.279149 36.405141 30.198789 59.164494 73.874521 81.173764 116.113531 23.720238 45.509497 46.12348 88.494497 78.639035 97.576339 4.839215 1.350764 10.103102 2.035356 15.644305 2.035356 21.255093 0 47.364751-9.581216 79.821977-29.291116a32.370245 32.370245 0 0 1 16.807804-4.713348c11.434423 0 21.799492 5.828752 27.727505 15.594163 9.277294 15.273868 4.397147 35.250852-10.878768 44.532239z"  horiz-adv-x="1024" />

    
    <glyph glyph-name="fenzhi" unicode="&#58882;" d="M808.935 177.018c-7.779 0-15.338-0.932-22.596-2.639L522.214 438.504V606.1c42.398 10.914 73.729 49.401 73.729 95.206 0 54.292-44.012 98.304-98.304 98.304s-98.304-44.012-98.304-98.304c0-45.806 31.329-84.294 73.728-95.206v-167.595L208.936 174.379a98.555 98.555 0 0 1-22.594 2.639c-54.292 0-98.304-44.012-98.304-98.305 0-54.291 44.012-98.303 98.304-98.303s98.304 44.012 98.304 98.303c0 28.051-11.769 53.338-30.615 71.248l219.031 219.033V173.92c-42.399-10.91-73.728-49.4-73.728-95.205 0-54.291 44.012-98.305 98.304-98.305s98.304 44.014 98.304 98.305c0 45.805-31.33 84.295-73.729 95.205V368.994l219.031-219.033c-18.846-17.91-30.615-43.197-30.615-71.248 0-54.291 44.012-98.303 98.305-98.303 54.291 0 98.303 44.012 98.303 98.303 0 54.293-44.011 98.305-98.302 98.305z m-624.581-145.2c-25.183 0-45.598 20.416-45.598 45.599s20.416 45.599 45.598 45.599 45.598-20.416 45.598-45.599-20.415-45.599-45.598-45.599z m358.082 45.598c0-25.182-20.414-45.598-45.597-45.598s-45.598 20.416-45.598 45.598c0 25.184 20.416 45.599 45.598 45.599s45.597-20.415 45.597-45.599z m-46.798 578.486c-25.183 0-45.598 20.416-45.598 45.598s20.416 45.598 45.598 45.598 45.598-20.416 45.598-45.598-20.416-45.598-45.598-45.598z m310.185-622.084c-25.183 0-45.599 20.416-45.599 45.598 0 25.184 20.416 45.599 45.599 45.599s45.598-20.415 45.598-45.599c0-25.182-20.415-45.598-45.598-45.598z"  horiz-adv-x="1024" />

    
    <glyph glyph-name="fenzhi1" unicode="&#58982;" d="M838.522141 242.419989a185.053162 185.053162 0 0 1-61.29886-10.640556l-161.921517 325.230932a185.053162 185.053162 0 1 1-205.40901 0l-161.921517-325.230932a185.053162 185.053162 0 1 1 41.405645-20.587165l161.921517 325.230933a181.583415 181.583415 0 0 1 122.59772 0l161.921517-325.230933a185.053162 185.053162 0 1 1 102.704505 31.227721z m-514.679107-185.053162a138.789872 138.789872 0 1 0-138.789872 138.789872 138.789872 138.789872 0 0 0 138.789872-138.789872zM511.90331 572.045934a138.789872 138.789872 0 1 0 138.789871 138.789872 138.789872 138.789872 0 0 0-138.789871-138.789872z m326.618831-653.468978a138.789872 138.789872 0 1 0 138.789871 138.789871 138.789872 138.789872 0 0 0-138.789871-138.789871z"  horiz-adv-x="1024" />

    
    <glyph glyph-name="LableRectangle" unicode="&#58887;" d="M101.587302 749.714286v-731.428572h1950.47619V749.714286h-1950.47619z m1908.06146-685.047873H143.993905V703.333587h1865.654857v-638.667174z"  horiz-adv-x="2210" />

    
    <glyph glyph-name="kongxinchangfangxing" unicode="&#58890;" d="M101.58592 749.71648v-731.42784h1950.47936V749.71648H101.58592zM2033.6384 38.4h-1914.88v691.2h1914.88v-691.2z"  horiz-adv-x="2178" />

    
    <glyph glyph-name="8636f874-copy" unicode="&#58880;" d="M288 384l256 0C561.92 384 576 398.08 576 416 576 433.92 561.92 448 544 448l-256 0C270.08 448 256 433.92 256 416 256 398.08 270.08 384 288 384zM768 832L192 832C121.6 832 64 774.4 64 704l0-576c0-70.4 57.6-128 128-128l576 0c70.4 0 128 57.6 128 128L896 704C896 774.4 838.4 832 768 832zM832 128c0-35.2-28.8-64-64-64L192 64c-35.2 0-64 28.8-64 64L128 704c0 35.2 28.8 64 64 64l576 0c35.2 0 64-28.8 64-64L832 128zM672 640l-384 0C270.08 640 256 625.9200000000001 256 608 256 590.0799999999999 270.08 576 288 576l384 0C689.92 576 704 590.0799999999999 704 608 704 625.9200000000001 689.92 640 672 640zM608 256l-320 0C270.08 256 256 241.91999999999996 256 224l0 0C256 206.08000000000004 270.08 192 288 192l320 0c17.92 0 32 14.08 32 32l0 0C640 241.91999999999996 625.92 256 608 256z"  horiz-adv-x="1024" />

    
    <glyph glyph-name="8636f874" unicode="&#58883;" d="M288 384l256 0C561.92 384 576 398.08 576 416 576 433.92 561.92 448 544 448l-256 0C270.08 448 256 433.92 256 416 256 398.08 270.08 384 288 384zM768 832L192 832C121.6 832 64 774.4 64 704l0-576c0-70.4 57.6-128 128-128l576 0c70.4 0 128 57.6 128 128L896 704C896 774.4 838.4 832 768 832zM832 128c0-35.2-28.8-64-64-64L192 64c-35.2 0-64 28.8-64 64L128 704c0 35.2 28.8 64 64 64l576 0c35.2 0 64-28.8 64-64L832 128zM672 640l-384 0C270.08 640 256 625.9200000000001 256 608 256 590.0799999999999 270.08 576 288 576l384 0C689.92 576 704 590.0799999999999 704 608 704 625.9200000000001 689.92 640 672 640zM608 256l-320 0C270.08 256 256 241.91999999999996 256 224l0 0C256 206.08000000000004 270.08 192 288 192l320 0c17.92 0 32 14.08 32 32l0 0C640 241.91999999999996 625.92 256 608 256z"  horiz-adv-x="1024" />

    
    <glyph glyph-name="8636f8741" unicode="&#58884;" d="M288 384l256 0C561.92 384 576 398.08 576 416 576 433.92 561.92 448 544 448l-256 0C270.08 448 256 433.92 256 416 256 398.08 270.08 384 288 384zM768 832L192 832C121.6 832 64 774.4 64 704l0-576c0-70.4 57.6-128 128-128l576 0c70.4 0 128 57.6 128 128L896 704C896 774.4 838.4 832 768 832zM832 128c0-35.2-28.8-64-64-64L192 64c-35.2 0-64 28.8-64 64L128 704c0 35.2 28.8 64 64 64l576 0c35.2 0 64-28.8 64-64L832 128zM672 640l-384 0C270.08 640 256 625.9200000000001 256 608 256 590.0799999999999 270.08 576 288 576l384 0C689.92 576 704 590.0799999999999 704 608 704 625.9200000000001 689.92 640 672 640zM608 256l-320 0C270.08 256 256 241.91999999999996 256 224l0 0C256 206.08000000000004 270.08 192 288 192l320 0c17.92 0 32 14.08 32 32l0 0C640 241.91999999999996 625.92 256 608 256z"  horiz-adv-x="1024" />

    
    <glyph glyph-name="8636f8742" unicode="&#58885;" d="M288 384l256 0C561.92 384 576 398.08 576 416 576 433.92 561.92 448 544 448l-256 0C270.08 448 256 433.92 256 416 256 398.08 270.08 384 288 384zM768 832L192 832C121.6 832 64 774.4 64 704l0-576c0-70.4 57.6-128 128-128l576 0c70.4 0 128 57.6 128 128L896 704C896 774.4 838.4 832 768 832zM832 128c0-35.2-28.8-64-64-64L192 64c-35.2 0-64 28.8-64 64L128 704c0 35.2 28.8 64 64 64l576 0c35.2 0 64-28.8 64-64L832 128zM672 640l-384 0C270.08 640 256 625.9200000000001 256 608 256 590.0799999999999 270.08 576 288 576l384 0C689.92 576 704 590.0799999999999 704 608 704 625.9200000000001 689.92 640 672 640zM608 256l-320 0C270.08 256 256 241.91999999999996 256 224l0 0C256 206.08000000000004 270.08 192 288 192l320 0c17.92 0 32 14.08 32 32l0 0C640 241.91999999999996 625.92 256 608 256z"  horiz-adv-x="1024" />

    
    <glyph glyph-name="8636f8743" unicode="&#58886;" d="M288 384l256 0C561.92 384 576 398.08 576 416 576 433.92 561.92 448 544 448l-256 0C270.08 448 256 433.92 256 416 256 398.08 270.08 384 288 384zM768 832L192 832C121.6 832 64 774.4 64 704l0-576c0-70.4 57.6-128 128-128l576 0c70.4 0 128 57.6 128 128L896 704C896 774.4 838.4 832 768 832zM832 128c0-35.2-28.8-64-64-64L192 64c-35.2 0-64 28.8-64 64L128 704c0 35.2 28.8 64 64 64l576 0c35.2 0 64-28.8 64-64L832 128zM672 640l-384 0C270.08 640 256 625.9200000000001 256 608 256 590.0799999999999 270.08 576 288 576l384 0C689.92 576 704 590.0799999999999 704 608 704 625.9200000000001 689.92 640 672 640zM608 256l-320 0C270.08 256 256 241.91999999999996 256 224l0 0C256 206.08000000000004 270.08 192 288 192l320 0c17.92 0 32 14.08 32 32l0 0C640 241.91999999999996 625.92 256 608 256z"  horiz-adv-x="1024" />

    
    <glyph glyph-name="8636f8744" unicode="&#58888;" d="M288 384l256 0C561.92 384 576 398.08 576 416 576 433.92 561.92 448 544 448l-256 0C270.08 448 256 433.92 256 416 256 398.08 270.08 384 288 384zM768 832L192 832C121.6 832 64 774.4 64 704l0-576c0-70.4 57.6-128 128-128l576 0c70.4 0 128 57.6 128 128L896 704C896 774.4 838.4 832 768 832zM832 128c0-35.2-28.8-64-64-64L192 64c-35.2 0-64 28.8-64 64L128 704c0 35.2 28.8 64 64 64l576 0c35.2 0 64-28.8 64-64L832 128zM672 640l-384 0C270.08 640 256 625.9200000000001 256 608 256 590.0799999999999 270.08 576 288 576l384 0C689.92 576 704 590.0799999999999 704 608 704 625.9200000000001 689.92 640 672 640zM608 256l-320 0C270.08 256 256 241.91999999999996 256 224l0 0C256 206.08000000000004 270.08 192 288 192l320 0c17.92 0 32 14.08 32 32l0 0C640 241.91999999999996 625.92 256 608 256z"  horiz-adv-x="1024" />

    
    <glyph glyph-name="line" unicode="&#58963;" d="M107.02700341 20.432733650000046l780.19780791 780.15882029 41.32775373-41.32775373-780.158819-780.15882027z"  horiz-adv-x="1024" />

    
    <glyph glyph-name="changfangxing" unicode="&#58932;" d="M980.5 767.3v-766.7h-937V767.3h937m42.6 42.6H0.9V-42h1022.3V809.9h-0.1z"  horiz-adv-x="1024" />

    
    <glyph glyph-name="biaodan" unicode="&#59370;" d="M860.1-63H163.9c-37.8 0-68.5 30.7-68.5 68.5v757c0 37.8 30.7 68.5 68.5 68.5H860c37.8 0 68.5-30.7 68.5-68.5v-757c0.1-37.8-30.7-68.5-68.4-68.5zM163.9 767c-2.5 0-4.5-2-4.5-4.5v-757c0-2.5 2-4.5 4.5-4.5H860c2.5 0 4.5 2 4.5 4.5v757c0 2.5-2 4.5-4.5 4.5H163.9zM742.5 141.2H283c-17.7 0-32 14.3-32 32s14.3 32 32 32h459.5c17.7 0 32-14.3 32-32s-14.3-32-32-32zM638.3 352H283c-17.7 0-32 14.3-32 32s14.3 32 32 32h355.4c17.7 0 32-14.3 32-32-0.1-17.7-14.4-32-32.1-32zM292.4 607.1m-41 0a41 41 0 1 1 82 0 41 41 0 1 1-82 0ZM513.6 607.1m-41 0a41 41 0 1 1 82 0 41 41 0 1 1-82 0ZM734.8 607.1m-41 0a41 41 0 1 1 82 0 41 41 0 1 1-82 0Z"  horiz-adv-x="1024" />

    
    <glyph glyph-name="xian" unicode="&#58962;" d="M711.011149 896.019577l18.08959-7.439441L310.475521-128.019577l-18.109167 7.439441z"  horiz-adv-x="1024" />

    
    <glyph glyph-name="yuanjiaochangfangxing" unicode="&#58918;" d="M899.3 146h-776c-35.8 0-65 29.2-65 65V555c0 35.8 29.2 65 65 65h776c35.8 0 65-29.2 65-65v-344c0-35.8-29.1-65-65-65z m-776 464c-30.3 0-55-24.7-55-55v-344c0-30.3 24.7-55 55-55h776c30.3 0 55 24.7 55 55V555c0 30.3-24.7 55-55 55h-776zM899.3 141h-776c-38.6 0-70 31.4-70 70V555c0 38.6 31.4 70 70 70h776c38.6 0 70-31.4 70-70v-344c0-38.6-31.4-70-70-70z m-836 70c0-33.1 26.9-60 60-60h776c33.1 0 60 26.9 60 60V555v-344c0-33.1-26.9-60-60-60h-776c-33.1 0-60 26.9-60 60z m60 394c-27.6 0-50-22.4-50-50v-344c0-27.6 22.4-50 50-50h776c27.6 0 50 22.4 50 50V555c0 27.6-22.4 50-50 50h-776z"  horiz-adv-x="1024" />

    
    <glyph glyph-name="fenzhi2" unicode="&#58893;" d="M583.185 521.79H451.507c-16.804 0-30.247 13.748-30.247 30.247v81.268c0 16.804 13.749 30.247 30.247 30.247h131.679c16.804 0 30.247-13.749 30.247-30.247v-80.963c0.305-16.804-13.443-30.552-30.247-30.552zM451.507 639.11c-3.055 0-5.805-2.75-5.805-5.805v-80.963c0-3.055 2.75-5.805 5.805-5.805h131.679c3.055 0 5.805 2.75 5.805 5.805v80.963c0 3.055-2.75 5.805-5.805 5.805H451.507z m131.678-497.998H451.507c-16.804 0-30.247 13.748-30.247 30.247v80.963c0 16.803 13.749 30.246 30.247 30.246h131.679c16.804 0 30.247-13.748 30.247-30.246v-80.964c0.305-16.498-13.443-30.246-30.247-30.246z m-131.679 117.32c-3.055 0-5.805-2.75-5.805-5.805v-80.963c0-3.055 2.75-5.805 5.805-5.805h131.679c3.055 0 5.805 2.75 5.805 5.805v80.962c0 3.055-2.75 5.805-5.805 5.805H451.507z m350.433-117.32h-131.68c-16.804 0-30.247 13.748-30.247 30.247v80.963c0 16.803 13.749 30.246 30.247 30.246h131.679c16.804 0 30.247-13.748 30.247-30.246v-80.964c0-16.498-13.749-30.246-30.247-30.246z m-131.984 117.32c-3.055 0-5.805-2.75-5.805-5.805v-80.963c0-3.055 2.75-5.805 5.805-5.805h131.679c3.055 0 5.805 2.75 5.805 5.805v80.962c0 3.055-2.75 5.805-5.805 5.805H669.955zM368.406 142.028H236.727c-16.804 0-30.247 13.748-30.247 30.247v80.963c0 16.803 13.749 30.246 30.247 30.246h131.679c16.804 0 30.247-13.748 30.247-30.246v-80.964c0-16.498-13.443-30.246-30.247-30.246zM236.727 259.347c-3.055 0-5.805-2.75-5.805-5.805v-80.963c0-3.055 2.75-5.805 5.805-5.805h131.679c3.055 0 5.805 2.75 5.805 5.805v80.963c0 3.055-2.75 5.805-5.805 5.805H236.727z m482.722 167.731H529.415v65.688c0 6.721-5.5 12.22-12.22 12.22s-12.222-5.499-12.222-12.22v-65.994H314.94c-6.721 0-12.22-5.5-12.22-12.22v-102.96c0-6.722 5.499-12.222 12.22-12.222s12.22 5.5 12.22 12.221v91.046h177.814v-90.74c0-6.72 5.5-12.22 12.22-12.22s12.221 5.5 12.221 12.22v90.74h177.813v-90.74c0-6.72 5.5-12.22 12.221-12.22s12.221 5.5 12.221 12.22v102.96c0 6.721-5.5 12.22-12.22 12.22z"  horiz-adv-x="1048" />

    
    <glyph glyph-name="ziyouxian1" unicode="&#58914;" d="M17.8 410.9c13.3 5.8 28.8 0.4 35.5-12.5 26.8-50.7 83.6-133.7 148.9-142.5 40.8-5.6 83.4 18.6 126.5 71.9C428.6 451.2 503.4 510.2 564 513.3c42.8 2.4 68.7-23.5 84.1-38.8 13.8-13.8 23.1-38 34.9-68.6 33.1-86.1 58.3-127.4 104.3-113.6C852.9 312 930 451.8 970.7 550.6c5.7 13.9 21.4 20.9 35.5 15.6 14.7-5.5 21.9-22.1 15.9-36.7-30.2-73-116.1-259.6-218.8-290.4C699.5 208 656.6 319.4 631 386c-7.1 18.5-16.8 43.7-22.3 49.2-14.7 14.7-24.9 23.5-41.8 22.6-29.2-1.5-86.8-31.4-195-165-50.2-62-103.2-93.3-157.7-93.3-6.5 0-13.1 0.4-19.6 1.3C99.1 213.8 31.5 321 4.3 372.3c-7.6 14.4-1.5 32.1 13.5 38.6z"  horiz-adv-x="1024" />

    
    <glyph glyph-name="ziyouxian2" unicode="&#58986;" d="M17.8 410.9c13.3 5.8 28.8 0.4 35.5-12.5 26.8-50.7 83.6-133.7 148.9-142.5 40.8-5.6 83.4 18.6 126.5 71.9C428.6 451.2 503.4 510.2 564 513.3c42.8 2.4 68.7-23.5 84.1-38.8 13.8-13.8 23.1-38 34.9-68.6 33.1-86.1 58.3-127.4 104.3-113.6C852.9 312 930 451.8 970.7 550.6c5.7 13.9 21.4 20.9 35.5 15.6 14.7-5.5 21.9-22.1 15.9-36.7-30.2-73-116.1-259.6-218.8-290.4C699.5 208 656.6 319.4 631 386c-7.1 18.5-16.8 43.7-22.3 49.2-14.7 14.7-24.9 23.5-41.8 22.6-29.2-1.5-86.8-31.4-195-165-50.2-62-103.2-93.3-157.7-93.3-6.5 0-13.1 0.4-19.6 1.3C99.1 213.8 31.5 321 4.3 372.3c-7.6 14.4-1.5 32.1 13.5 38.6z"  horiz-adv-x="1024" />

    
    <glyph glyph-name="changfangxing1" unicode="&#58934;" d="M72 694h880v-620H72z"  horiz-adv-x="1024" />

    
    <glyph glyph-name="xian1" unicode="&#59031;" d="M1088.512 735.232c-56.32 4.096-106.496-36.352-114.176-92.16s28.672-108.544 83.968-120.32c-2.56-33.792-15.36-66.048-36.864-92.16-37.888-46.08-112.64-80.384-202.24-89.088-83.456-7.68-259.072 6.656-315.904-66.56V591.872c56.832 12.8 99.328 64 99.328 124.928 0 70.656-57.344 128-128 128s-128-57.344-128-128c0-60.928 42.496-112.128 99.84-124.928v-457.216a107.4688 107.4688 0 0 1-78.336-118.272c7.168-53.248 52.736-93.184 106.496-93.184s99.328 39.936 106.496 93.184c7.168 53.248-26.112 103.936-78.336 118.272v51.712c3.072 9.216 7.68 17.408 12.288 26.112 49.664 90.112 218.112 69.12 308.224 78.336 103.424 9.728 189.952 49.664 237.056 108.032 28.672 35.84 45.568 79.872 48.128 125.952 46.592 12.8 78.336 55.296 78.336 103.424 2.048 56.32-41.984 103.424-98.304 107.008z"  horiz-adv-x="1536" />

    
    <glyph glyph-name="jiedian" unicode="&#58891;" d="M0 896h1024v-1024H0z"  horiz-adv-x="1024" />

    
    <glyph glyph-name="changfangxing2" unicode="&#58927;" d="M46.545455 532.945455h930.90909v-279.272728H46.545455z"  horiz-adv-x="1024" />

    
    <glyph glyph-name="xian2" unicode="&#58892;" d="M43.7248-94.9248L984.9856 846.3872l-36.1984 36.1984L7.4752-58.6752z"  horiz-adv-x="1024" />

    
    <glyph glyph-name="shubiaojiantou" unicode="&#58993;" d="M577.789 348.289l282.348-343.787-73.395-60.357L505.03 287.168 400.731 94.811 343.26-11.19l-30.458 116.802-161.404 619.067-25.872 99.176 92.366-44.411 573.502-275.79 107.08-51.488-113.04-36.622z"  horiz-adv-x="1024" />

    
    <glyph glyph-name="yuanxing3" unicode="&#58894;" d="M511.28793597 16.51506132999998c-203.64442905 0-369.30957687 165.66430491-369.30957687 369.31463527 0 203.64442905 165.66430491 369.30957687 369.30957688 369.30957687 203.65033117 0 369.31463608-165.66430491 369.31463607-369.30957688 0-203.65033117-165.66430491-369.31463608-369.31463608-369.31463525z m0 685.86654502c-174.55140417 0-316.55190893-142.00050476-316.55190893-316.55190975 0-174.55646338 142.00050476-316.55696814 316.55190893-316.55696814 174.55646338 0 316.55696814 142.00050476 316.55696814 316.55696814 0 174.55140417-142.00050476 316.55190893-316.55696813 316.55190975z m0 0"  horiz-adv-x="1024" />

    
    <glyph glyph-name="changfangxing3" unicode="&#58895;" d="M111.5 598v-400h800V598h-800z m760-360h-720V558h720v-320z"  horiz-adv-x="1024" />

    
    <glyph glyph-name="xian3" unicode="&#59320;" d="M848 464a80.064 80.064 0 0 1-73.216-48H217.216A80.096 80.096 0 0 1 144 464a80.096 80.096 0 0 1-80-80c0-44.128 35.904-80 80-80a80 80 0 0 1 73.216 48h557.536a80 80 0 0 1 73.216-48c44.128 0 80 35.872 80 80A80.032 80.032 0 0 1 848 464z"  horiz-adv-x="1024" />

    
    <glyph glyph-name="yuanxing4" unicode="&#58903;" d="M512 384m-358.4 0a358.4 358.4 0 1 1 716.8 0 358.4 358.4 0 1 1-716.8 0Z"  horiz-adv-x="1024" />

    
    <glyph glyph-name="weibiaoti-zhuanhuan-" unicode="&#58896;" d="M23.232 609.408h977.536v-535.488H23.232V609.408z"  horiz-adv-x="1024" />

    
    <glyph glyph-name="biaodanbiaoge" unicode="&#59252;" d="M921.6 568.32c0 5.12 0 0 0 0v5.12 5.12 5.12L645.12 880.64h-5.12-5.12-5.12L614.4 896H209.92C153.6 896 102.4 844.8 102.4 778.24v-788.48C102.4-76.8 153.6-128 209.92-128h599.04c61.44 0 107.52 51.2 107.52 117.76L921.6 568.32c0-5.12 0 0 0 0z m-276.48 194.56l148.48-158.72h-148.48V762.88z m168.96-814.08H209.92c-20.48 0-35.84 15.36-35.84 40.96V778.24c0 20.48 15.36 40.96 35.84 40.96h363.52v-256c0-20.48 15.36-40.96 35.84-40.96h240.64v-532.48c0-20.48-15.36-40.96-35.84-40.96zM701.44 307.2H322.56c-20.48 0-35.84-15.36-35.84-40.96 0-20.48 15.36-40.96 35.84-40.96h384c20.48 0 35.84 15.36 35.84 40.96 0 20.48-20.48 40.96-40.96 40.96zM322.56 394.24h184.32c20.48 0 35.84 15.36 35.84 40.96 0 20.48-15.36 40.96-35.84 40.96H322.56c-20.48-5.12-40.96-20.48-40.96-40.96 0-25.6 20.48-40.96 40.96-40.96z m378.88-256H322.56c-20.48 0-35.84-15.36-35.84-40.96 0-20.48 15.36-40.96 35.84-40.96h384c20.48 0 35.84 15.36 35.84 40.96 0 20.48-20.48 40.96-40.96 40.96z"  horiz-adv-x="1024" />

    
    <glyph glyph-name="yuanxing5" unicode="&#58899;" d="M858.3 584.8C894 523.5 912 456.6 912 384s-17.9-139.5-53.7-200.8C822.5 122 774 73.4 712.8 37.7S584.6-16 512-16s-139.5 17.9-200.8 53.7c-61.2 35.7-109.7 84.2-145.6 145.6C129.9 244.5 112 311.4 112 384c0 72.5 17.9 139.4 53.7 200.8 35.7 61.2 84.2 109.7 145.6 145.6C372.5 766 439.4 784 512 784c72.5 0 139.4-17.9 200.8-53.7C774 694.5 822.5 646 858.3 584.8z"  horiz-adv-x="1024" />

    
    <glyph glyph-name="biaodan1" unicode="&#58900;" d="M800 606.644H224a31.97 31.97 0 0 1 0-63.94h576a31.97 31.97 0 0 1 0 63.94z m0-190.737H224a31.97 31.97 0 1 1 0-63.94h576a31.97 31.97 0 1 1 0 63.94z m0-190.737H224a31.97 31.97 0 0 1 0-63.94h576a31.97 31.97 0 0 1 0 63.94zM948.041 739.856A150.75 150.75 0 0 1 809.165 832.06h-0.279l-73.444-1.326a31.988 31.988 0 0 1 1.113-63.965l72.866 1.26a86.124 86.124 0 0 0 61.1-25.45c16.412-16.41 25.367-38.233 25.367-61.44v-594.278c0-23.207-8.955-44.957-25.366-61.368a86.06 86.06 0 0 0-61.357-25.378h-594.33c-23.206 0-45.061 8.97-61.473 25.378a86.19 86.19 0 0 0-25.482 61.368V681.139a86.944 86.944 0 0 0 86.94 86.883h73.174a31.97 31.97 0 1 1 0 63.94h-73.159A150.827 150.827 0 0 1 63.94 681.14v-594.278a150.599 150.599 0 0 1 150.895-150.686h594.33a150.328 150.328 0 0 1 150.66 150.686V681.139a149.837 149.837 0 0 1-11.784 58.717zM415.998 768.12h192a31.97 31.97 0 0 1 0 63.94h-192a31.97 31.97 0 0 1 0-63.94z"  horiz-adv-x="1024" />

    
    <glyph glyph-name="fenzhi3" unicode="&#58907;" d="M543.754 643.968a128 128 0 1 1-63.488 0 32.32 32.32 0 0 1-0.256-3.968c0-75.648-51.392-140.16-180.672-249.6-96.256-81.408-102.528-86.912-132.416-118.912C120.586 221.76 96.01 176.256 96.01 128c0-1.344 0.064-2.688 0.256-3.968a128 128 0 1 1 63.488 0 32.32 32.32 0 0 1 0.256 3.968c0 28.672 17.408 60.8 53.76 99.84 27.264 29.248 33.6 34.816 126.912 113.728 60.992 51.648 106.816 94.72 139.328 135.04V128c0-1.344 0.064-2.688 0.256-3.968a128 128 0 1 1 63.488 0 32.32 32.32 0 0 1 0.256 3.968V476.608c32.512-40.32 78.336-83.392 139.328-135.04 93.312-78.912 99.648-84.48 126.912-113.728 36.352-39.04 53.76-71.168 53.76-99.84 0-1.344 0.064-2.688 0.256-3.968a128 128 0 1 1 63.488 0 32.32 32.32 0 0 1 0.256 3.968c0 48.256-24.576 93.76-70.912 143.488-29.888 32-36.16 37.504-132.416 118.976C595.402 499.84 544.01 564.352 544.01 640a32.32 32.32 0 0 1-0.256 3.968zM512.01 64a64 64 0 1 0 0-128 64 64 0 0 0 0 128z m-384 0a64 64 0 1 0 0-128 64 64 0 0 0 0 128z m768 0a64 64 0 1 0 0-128 64 64 0 0 0 0 128z m-384 768a64 64 0 1 0 0-128 64 64 0 0 0 0 128z"  horiz-adv-x="1024" />

    
    <glyph glyph-name="xian5" unicode="&#59072;" d="M808 781.6a100 100 0 0 0 100-100v-592a100 100 0 0 0-100-100h-592a100 100 0 0 0-100 100v592a100 100 0 0 0 100 100h592z m0-72h-592a28 28 0 0 1-28-28v-592c0-15.456 12.544-28 28-28h592a28 28 0 0 1 28 28v592a28 28 0 0 1-28 28z"  horiz-adv-x="1024" />

    
    <glyph glyph-name="yuanxing6" unicode="&#59102;" d="M512 896C229.376 896 0 666.624 0 384s229.376-512 512-512 512 229.376 512 512S794.624 896 512 896z m0-967.68c-251.904 0-455.68 203.776-455.68 455.68s203.776 455.68 455.68 455.68 455.68-203.776 455.68-455.68-203.776-455.68-455.68-455.68z"  horiz-adv-x="1024" />

    
    <glyph glyph-name="changfangxing4" unicode="&#59108;" d="M905.72 108.2H147.97V686.51h757.75V108.2z m-717.75 40h677.75V646.51H187.97V148.2z"  horiz-adv-x="1024" />

    
    <glyph glyph-name="biaodan2" unicode="&#59087;" d="M868-103.56H158c-55.14 0-100 44.86-100 100V772.13c0 55.14 44.86 100 100 100h710c55.14 0 100-44.86 100-100v-775.69c0-55.14-44.87-100-100-100zM158 792.13c-11.03 0-20-8.97-20-20v-775.69c0-11.03 8.97-20 20-20h710c11.03 0 20 8.97 20 20V772.13c0 11.03-8.97 20-20 20H158zM230.18 613.87h566.66v-100H230.18zM230.18 439.13h566.66v-100H230.18zM230.18 271.36h415.69v-100H230.18z"  horiz-adv-x="1024" />

    
    <glyph glyph-name="changfangxing5" unicode="&#59302;" d="M0 896h1615.872v-1024H0zM1615.872 896v-1024H0V896h1615.872z m-32.8192-32.768H32.768v-958.464h1550.2848V863.232z"  horiz-adv-x="1638" />

    
    <glyph glyph-name="changfangxing6" unicode="&#58902;" d="M968 83.2c0-4.8-3.2-8-8-8H64c-4.8 0-8 3.2-8 8V684.8c0 4.8 3.2 8 8 8h896c4.8 0 8-3.2 8-8v-601.6z m-46.4 563.2c0 4.8-3.2 8-8 8H110.4c-4.8 0-8-3.2-8-8V120c0-4.8 3.2-8 8-8h803.2c4.8 0 8 3.2 8 8V646.4z"  horiz-adv-x="1024" />

    
    <glyph glyph-name="xian6" unicode="&#58980;" d="M852.17 665.34c-44.11 0-79.86-35.75-79.86-79.86 0-22.8 9.57-43.36 24.9-57.91L670.2 232.76c-1.9 0.14-3.81 0.23-5.74 0.23-1.96 0-3.89-0.1-5.81-0.23L447.34 550.92c19.56 14.56 32.24 37.85 32.24 64.11 0 44.11-35.75 79.86-79.86 79.86s-79.86-35.75-79.86-79.86c0-26.84 13.25-50.56 33.55-65.04L187.7 238.64a79.956 79.956 0 0 1-16.19 1.65c-44.11 0-79.86-35.75-79.86-79.86s35.75-79.86 79.86-79.86 79.86 35.75 79.86 79.86c0 20.45-7.69 39.09-20.33 53.22L400.21 531.5 611.7 213.06c-16.61-14.63-27.11-36.05-27.11-59.93 0-44.11 35.75-79.86 79.86-79.86s79.86 35.75 79.86 79.86c0 24.25-10.82 45.95-27.88 60.6l126.02 292.51c3.18-0.39 6.42-0.61 9.71-0.61 44.11 0 79.86 35.75 79.86 79.86 0.01 44.1-35.74 79.85-79.85 79.85z"  horiz-adv-x="1024" />

    
    <glyph glyph-name="yuanxing7" unicode="&#58935;" d="M512 793.6C285.7984 793.6 102.4 610.2016 102.4 384s183.3984-409.6 409.6-409.6 409.6 183.3984 409.6 409.6S738.2016 793.6 512 793.6z m0-68.266667c188.5184 0 341.333333-152.814933 341.333333-341.333333s-152.814933-341.333333-341.333333-341.333333S170.666667 195.4816 170.666667 384 323.4816 725.333333 512 725.333333z"  horiz-adv-x="1024" />

    
    <glyph glyph-name="jiedian1" unicode="&#59156;" d="M259.328 424.96A243.114667 243.114667 0 0 1 256 384c0-13.994667 1.024-27.733333 3.328-40.96H41.216A41.045333 41.045333 0 0 0 0 384c0 22.613333 18.432 40.96 41.216 40.96h218.112z m505.344 0h218.112c22.784 0 41.216-18.346667 41.216-40.96s-18.432-40.96-41.216-40.96h-218.112c2.304 13.482667 3.328 26.965333 3.328 40.96 0 13.994667-1.024 27.733333-3.328 40.96zM512 170.666667c-118.528 0-214.784 95.36-214.784 213.333333 0 117.76 96 213.333333 214.784 213.333333 118.528 0 214.784-95.36 214.784-213.333333 0-117.76-96.256-213.333333-214.784-213.333333z m0 82.133333c72.96 0 132.096 58.752 132.096 131.2 0 72.448-59.136 131.2-132.096 131.2-72.96 0-132.096-58.752-132.096-131.2 0-72.448 59.136-131.2 132.096-131.2z"  horiz-adv-x="1024" />

    


  </font>
</defs>
</svg>
